<?xml version="1.0" encoding="utf-8"?>
<!-- Generator: Adobe Illustrator 16.0.0, SVG Export Plug-In . SVG Version: 6.00 Build 0)  -->
<!DOCTYPE svg PUBLIC "-//W3C//DTD SVG 1.1//EN" "http://www.w3.org/Graphics/SVG/1.1/DTD/svg11.dtd">
<svg version="1.1" id="Calque_8" xmlns="http://www.w3.org/2000/svg" xmlns:xlink="http://www.w3.org/1999/xlink" x="0px" y="0px"
	 width="125px" height="125px" viewBox="0 0 125 125" enable-background="new 0 0 125 125" xml:space="preserve">
<g>
	<path fill="#0C3B5B" stroke="#0A2C41" stroke-width="3" stroke-miterlimit="10" d="M68.951,22.446
		c0.95-1.313,1.517-2.92,1.517-4.664c0-4.399-3.565-7.966-7.966-7.966c-4.399,0-7.966,3.566-7.966,7.966
		c0,2.958,1.614,5.531,4.007,6.907v35.602c0,2.786-2.258,5.046-5.045,5.046s-5.045-2.26-5.045-5.046V28.962
		c-35.713,34.242-2.895,64.463-0.986,66.497h30.069C79.566,93.299,116.52,59.283,68.951,22.446z"/>
	<path fill="#0C3B5B" stroke="#0A2C41" stroke-width="3" stroke-miterlimit="10" d="M88.66,92.768c0,1.811-1.467,3.277-3.279,3.277
		H39.623c-1.813,0-3.28-1.467-3.28-3.277v-1.324c0-1.811,1.468-3.279,3.28-3.279h45.758c1.813,0,3.279,1.469,3.279,3.279V92.768z"/>
	<path fill="#0C3B5B" stroke="#0A2C41" stroke-width="3" stroke-miterlimit="10" d="M30.906,96.629h63.19
		c3.279,0,5.938,2.66,5.938,5.939v6.678c0,3.279-2.658,5.938-5.938,5.938h-63.19c-3.279,0-5.938-2.658-5.938-5.938v-6.678
		C24.967,99.289,27.626,96.629,30.906,96.629"/>
	<path fill="#115D7F" d="M96.428,101.508c0,1.01-0.82,1.83-1.832,1.83H30.654c-1.012,0-1.832-0.82-1.832-1.83l0,0
		c0-1.012,0.82-1.832,1.832-1.832h63.942C95.607,99.676,96.428,100.496,96.428,101.508L96.428,101.508z"/>
	<path fill="#115D7F" d="M66.858,28.126c0,0,15.732,9.386,20.166,26.935c4.436,17.549-7.999,28.878-7.999,28.878h-11
		C68.025,83.939,89.691,60.924,66.858,28.126z"/>
</g>
</svg>
