<?xml version="1.0" encoding="utf-8"?>
<!-- Generator: Adobe Illustrator 16.0.0, SVG Export Plug-In . SVG Version: 6.00 Build 0)  -->
<!DOCTYPE svg PUBLIC "-//W3C//DTD SVG 1.1//EN" "http://www.w3.org/Graphics/SVG/1.1/DTD/svg11.dtd">
<svg version="1.1" id="Calque_1" xmlns="http://www.w3.org/2000/svg" xmlns:xlink="http://www.w3.org/1999/xlink" x="0px" y="0px"
	 width="125px" height="125px" viewBox="0 0 125 125" enable-background="new 0 0 125 125" xml:space="preserve">
<g>
	<path fill="#CFEBF2" stroke="#0A2C41" stroke-width="3" stroke-miterlimit="10" d="M92.828,96.86l11.543-32.451
		c0,0,4.766-12.796-10.59-16.145c-15.355-3.35-31.281,0-31.281,0s-15.927-3.35-31.281,0c-15.355,3.349-10.591,16.145-10.591,16.145
		L32.171,96.86"/>
	<path fill="none" stroke="#0A2C41" stroke-width="3" stroke-miterlimit="10" d="M45.24,96.86c0,0-25.912-46.972,1.742-50.729"/>
	<line fill="#CFEBF2" stroke="#0A2C41" stroke-width="3" stroke-miterlimit="10" x1="61.557" y1="51.743" x2="61.557" y2="98.655"/>
	<polygon fill="#FFFFFF" stroke="#0A2C41" stroke-width="3" stroke-miterlimit="10" points="76.982,19.489 68.304,19.489 
		68.304,9.505 54.622,9.505 54.622,19.489 45.944,19.489 45.944,31.863 54.622,31.863 54.622,40.791 68.304,40.791 68.304,31.863 
		76.982,31.863 	"/>
	
		<ellipse fill="#0C3B5B" stroke="#0A2C41" stroke-width="3" stroke-linecap="round" stroke-linejoin="round" stroke-miterlimit="10" cx="61.557" cy="73.624" rx="11.482" ry="7.867"/>
	<path fill="none" stroke="#0A2C41" stroke-width="3" stroke-miterlimit="10" d="M77.875,96.86c0,0,25.913-46.972-1.742-50.729"/>
	<path fill="#CFEBF2" stroke="#0A2C41" stroke-width="3" stroke-miterlimit="10" d="M77.579,46.147c0,2.469-1.681,4.468-3.751,4.468
		H49.616c-2.071,0-3.751-1.999-3.751-4.468v-1.802c0-2.468,1.68-4.469,3.751-4.469h24.212c2.07,0,3.751,2.001,3.751,4.469V46.147z"
		/>
	<path fill="#B6E2EA" stroke="#0A2C41" stroke-width="3" stroke-miterlimit="10" d="M29.869,96.94h63.19
		c3.279,0,5.938,2.66,5.938,5.939v6.678c0,3.279-2.658,5.938-5.938,5.938h-63.19c-3.279,0-5.938-2.658-5.938-5.938v-6.678
		C23.93,99.601,26.589,96.94,29.869,96.94"/>
	<path fill="#FFFFFF" d="M95.391,101.819c0,1.01-0.82,1.83-1.832,1.83H29.617c-1.012,0-1.832-0.82-1.832-1.83l0,0
		c0-1.012,0.82-1.832,1.832-1.832h63.942C94.57,99.987,95.391,100.808,95.391,101.819L95.391,101.819z"/>
	<path fill="#78C2CD" d="M90.807,94.376l9.916-29.333c0,0,5.418-13.334-11.082-14.834c-5.195-0.299,15.277,1.298-4.668,44.167"/>
	<path fill="#FFFFFF" d="M32.308,94.376l-9.917-29.333c0,0-5.417-13.334,11.083-14.834c5.195-0.299-15.278,1.298,4.667,44.167"/>
	<path fill="#78C2CD" d="M77.79,51.744c0,0,7.375,3.674,6.625,13.049S74.04,95.505,74.04,95.505s11-30.435,3.375-43.761"/>
</g>
<rect x="-0.666" y="1.334" fill="none" width="125" height="125"/>
</svg>
