<?xml version="1.0" encoding="utf-8"?>
<!-- Generator: Adobe Illustrator 16.0.0, SVG Export Plug-In . SVG Version: 6.00 Build 0)  -->
<!DOCTYPE svg PUBLIC "-//W3C//DTD SVG 1.1//EN" "http://www.w3.org/Graphics/SVG/1.1/DTD/svg11.dtd">
<svg version="1.1" id="Calque_2" xmlns="http://www.w3.org/2000/svg" xmlns:xlink="http://www.w3.org/1999/xlink" x="0px" y="0px"
	 width="125px" height="125px" viewBox="0 0 125 125" enable-background="new 0 0 125 125" xml:space="preserve">
<g>
	<path fill="#0C3B5B" stroke="#0A2C41" stroke-width="3" stroke-miterlimit="10" d="M92.829,96.861l11.543-32.453
		c0,0,4.765-12.796-10.59-16.145c-15.356-3.35-31.282,0-31.282,0s-15.926-3.35-31.281,0c-15.355,3.349-10.59,16.145-10.59,16.145
		l11.543,32.453"/>
	<path fill="none" stroke="#0A2C41" stroke-width="3" stroke-miterlimit="10" d="M45.24,96.861c0,0-25.912-46.974,1.742-50.73"/>
	<line fill="#CFEBF2" stroke="#0A2C41" stroke-width="3" stroke-miterlimit="10" x1="61.557" y1="51.742" x2="61.557" y2="98.656"/>
	<polygon fill="#115D7F" stroke="#0A2C41" stroke-width="3" stroke-miterlimit="10" points="76.98,19.488 68.303,19.488 
		68.303,9.504 54.621,9.504 54.621,19.488 45.943,19.488 45.943,31.862 54.621,31.862 54.621,40.79 68.303,40.79 68.303,31.862 
		76.98,31.862 	"/>
	
		<ellipse fill="#BCE4EC" stroke="#0A2C41" stroke-width="3" stroke-miterlimit="10" cx="61.557" cy="73.623" rx="11.482" ry="7.869"/>
	<path fill="none" stroke="#0A2C41" stroke-width="3" stroke-miterlimit="10" d="M77.873,96.861c0,0,25.913-46.974-1.74-50.73"/>
	<path fill="#0C3B5B" stroke="#0A2C41" stroke-width="3" stroke-miterlimit="10" d="M77.578,46.146c0,2.469-1.68,4.468-3.75,4.468
		H49.615c-2.07,0-3.75-1.999-3.75-4.468v-1.802c0-2.468,1.68-4.469,3.75-4.469h24.213c2.07,0,3.75,2.001,3.75,4.469V46.146z"/>
	<path fill="#0C3B5B" stroke="#0A2C41" stroke-width="3" stroke-miterlimit="10" d="M29.869,96.941h63.189
		c3.279,0,5.938,2.658,5.938,5.938v6.68c0,3.279-2.658,5.938-5.938,5.938H29.869c-3.279,0-5.939-2.658-5.939-5.938v-6.68
		C23.93,99.6,26.59,96.941,29.869,96.941"/>
	<path fill="#115D7F" d="M95.391,101.818c0,1.012-0.82,1.832-1.832,1.832H29.617c-1.012,0-1.832-0.82-1.832-1.832l0,0
		c0-1.012,0.82-1.832,1.832-1.832h63.941C94.57,99.986,95.391,100.807,95.391,101.818L95.391,101.818z"/>
	<path fill="#0A2C41" d="M90.807,94.375l9.917-29.333c0,0,5.416-13.334-11.084-14.834c-5.195-0.299,15.279,1.298-4.666,44.167"/>
	<path fill="#115D7F" d="M32.309,94.375l-9.918-29.333c0,0-5.416-13.334,11.084-14.834c5.195-0.299-15.279,1.298,4.666,44.167"/>
	<path fill="#115D7F" d="M44.182,50.614c0,0-7.375,3.674-6.625,13.049s10.375,30.712,10.375,30.712s-11-30.435-3.375-43.761"/>
</g>
</svg>
