<?xml version="1.0" encoding="utf-8"?>
<!-- Generator: Adobe Illustrator 16.0.0, SVG Export Plug-In . SVG Version: 6.00 Build 0)  -->
<!DOCTYPE svg PUBLIC "-//W3C//DTD SVG 1.1//EN" "http://www.w3.org/Graphics/SVG/1.1/DTD/svg11.dtd">
<svg version="1.1" id="Calque_11" xmlns="http://www.w3.org/2000/svg" xmlns:xlink="http://www.w3.org/1999/xlink" x="0px" y="0px"
	 width="125px" height="125px" viewBox="0 0 125 125" enable-background="new 0 0 125 125" xml:space="preserve">
<g>
	<path fill="#B6E2EA" stroke="#0A2C41" stroke-width="3" stroke-miterlimit="10" d="M36.622,99.728
		c2.318-5.391,7.044-11.634,16.37-17.424c23.143-14.363,7.98-24.471,7.98-24.471s-2.528,7.98-9.043,11.173
		c-6.52,3.191-12.502,4.123-15.827,9.31c-3.327,5.188-17.69,0-17.558-8.776c0.134-8.777,15.828-23.41,15.828-28.065
		c0-4.652,5.45-19.417,9.974-21.279c4.522-1.863-0.797-10.106,2.928-11.038c3.724-0.933,10.773,10.64,15.162,9.975
		c4.39-0.665,60.648,18.223,35.911,79.135"/>
	<path fill="#B6E2EA" stroke="#0A2C41" stroke-width="3" stroke-miterlimit="10" d="M37.33,97.343h63.189
		c3.279,0,5.938,2.659,5.938,5.938v6.679c0,3.279-2.658,5.938-5.938,5.938H37.33c-3.279,0-5.938-2.658-5.938-5.938v-6.679
		C31.391,100.002,34.05,97.343,37.33,97.343"/>
	<path fill="#FFFFFF" d="M102.851,102.221c0,1.011-0.82,1.831-1.832,1.831H37.078c-1.012,0-1.832-0.82-1.832-1.831l0,0
		c0-1.012,0.82-1.832,1.832-1.832h63.941C102.03,100.389,102.851,101.209,102.851,102.221L102.851,102.221z"/>
	<path fill="#FFFFFF" d="M23.668,68.997c0,0-3.563-0.285,0.563-5.973s13.438-19,13.438-19s5.375-18.563,10.875-19.5
		s19.008,7.375,14.754,14.875s-13.004-1-19.254,6.375S30.985,63.334,23.668,68.997z"/>
	<path fill="#0A2C41" d="M41.392,39.001c0,0,4.787-10.174,9.576-7.247c4.787,2.925-5.188,7.247-9.976,7.247"/>
	<path fill="#78C2CD" d="M82.168,95.19h11.667c0,0.001,9.584-19.897,5.709-33.614c-3.876-13.719-13.875-30.552-31.708-36.052
		C67.835,25.525,107.834,63.318,82.168,95.19z"/>
</g>
</svg>
