<?xml version="1.0" encoding="utf-8"?>
<!-- Generator: Adobe Illustrator 16.0.0, SVG Export Plug-In . SVG Version: 6.00 Build 0)  -->
<!DOCTYPE svg PUBLIC "-//W3C//DTD SVG 1.1//EN" "http://www.w3.org/Graphics/SVG/1.1/DTD/svg11.dtd">
<svg version="1.1" id="Calque_9" xmlns="http://www.w3.org/2000/svg" xmlns:xlink="http://www.w3.org/1999/xlink" x="0px" y="0px"
	 width="125px" height="125px" viewBox="0 0 125 125" enable-background="new 0 0 125 125" xml:space="preserve">
<g>
	<path fill="#B6E2EA" stroke="#0A2C41" stroke-width="3" stroke-miterlimit="10" d="M88.957,86.744c0,0-15.667-12.781-15.667-42.723
		H51.71c0,29.942-15.667,42.723-15.667,42.723"/>
	<path fill="#B6E2EA" stroke="#0A2C41" stroke-width="3" stroke-miterlimit="10" d="M94.408,90.854c0,2.209-1.791,4-4,4H34.592
		c-2.209,0-4-1.791-4-4V89.24c0-2.209,1.791-4,4-4h55.816c2.209,0,4,1.791,4,4V90.854z"/>
	<path fill="#B6E2EA" stroke="#0A2C41" stroke-width="3" stroke-miterlimit="10" d="M79.408,50.802c0,2.209-1.791,4-4,4H49.592
		c-2.209,0-4-1.791-4-4v-1.613c0-2.209,1.791-4,4-4h25.815c2.209,0,4,1.791,4,4V50.802z"/>
	<circle fill="#B6E2EA" stroke="#0A2C41" stroke-width="3" stroke-miterlimit="10" cx="62.5" cy="27.612" r="17.281"/>
	<g>
		<path fill="#FFFFFF" d="M66.135,18.958c3.148,0,6.043,1.057,8.373,2.818C72.301,17,67.483,13.68,61.877,13.68
			c-7.689,0-13.922,6.232-13.922,13.922c0,4.541,2.184,8.563,5.547,11.104c-0.818-1.773-1.289-3.744-1.289-5.826
			C52.213,25.188,58.446,18.958,66.135,18.958z"/>
	</g>
	<path fill="#B6E2EA" stroke="#0A2C41" stroke-width="3" stroke-miterlimit="10" d="M30.906,96.115h63.19
		c3.279,0,5.938,2.658,5.938,5.938v6.68c0,3.279-2.658,5.938-5.938,5.938h-63.19c-3.279,0-5.938-2.658-5.938-5.938v-6.68
		C24.967,98.773,27.626,96.115,30.906,96.115"/>
	<path fill="#FFFFFF" d="M96.428,100.992c0,1.012-0.82,1.832-1.832,1.832H30.654c-1.012,0-1.832-0.82-1.832-1.832l0,0
		c0-1.012,0.82-1.832,1.832-1.832h63.942C95.607,99.16,96.428,99.98,96.428,100.992L96.428,100.992z"/>
	<path fill="#FFFFFF" d="M91.553,89.576c0,0.865-0.703,1.568-1.568,1.568h-54.72c-0.865,0-1.567-0.703-1.567-1.568l0,0
		c0-0.865,0.702-1.568,1.567-1.568h54.72C90.85,88.008,91.553,88.711,91.553,89.576L91.553,89.576z"/>
	<path fill="#FFFFFF" d="M76.405,49.661c0,0.865-0.334,1.567-0.746,1.567H49.59c-0.412,0-0.746-0.702-0.746-1.567l0,0
		c0-0.866,0.334-1.568,0.746-1.568h26.068C76.071,48.092,76.405,48.794,76.405,49.661L76.405,49.661z"/>
</g>
</svg>
