<?xml version="1.0" encoding="utf-8"?>
<!-- Generator: Adobe Illustrator 16.0.0, SVG Export Plug-In . SVG Version: 6.00 Build 0)  -->
<!DOCTYPE svg PUBLIC "-//W3C//DTD SVG 1.1//EN" "http://www.w3.org/Graphics/SVG/1.1/DTD/svg11.dtd">
<svg version="1.1" id="Calque_3" xmlns="http://www.w3.org/2000/svg" xmlns:xlink="http://www.w3.org/1999/xlink" x="0px" y="0px"
	 width="125px" height="125px" viewBox="0 0 125 125" enable-background="new 0 0 125 125" xml:space="preserve">
<g>
	<path fill="#BCE4EC" stroke="#0A2C41" stroke-width="3" stroke-miterlimit="10" d="M106.926,44.602
		c-3.227,0.831-23.476,16.821-23.476,16.821l4.049-38.332L68.773,52.403l-6.292-36.026l-6.292,36.027L37.463,23.091l4.05,38.332
		c0,0-20.25-15.99-23.476-16.821c-3.227-0.831-4.241,1.145-4.241,1.145l21.505,58.61h54.361l21.505-58.61
		C111.167,45.746,110.152,43.771,106.926,44.602z"/>
	<circle fill="#BCE4EC" stroke="#0A2C41" stroke-width="3" stroke-miterlimit="10" cx="62.482" cy="16.378" r="6.901"/>
	<circle fill="#BCE4EC" stroke="#0A2C41" stroke-width="3" stroke-miterlimit="10" cx="12.492" cy="41.257" r="5.646"/>
	<circle fill="#BCE4EC" stroke="#0A2C41" stroke-width="3" stroke-miterlimit="10" cx="112.508" cy="40.257" r="5.646"/>
	<circle fill="#BCE4EC" stroke="#0A2C41" stroke-width="3" stroke-miterlimit="10" cx="86.867" cy="23.507" r="5.646"/>
	<circle fill="#BCE4EC" stroke="#0A2C41" stroke-width="3" stroke-miterlimit="10" cx="38.096" cy="23.507" r="5.646"/>
	
		<polygon fill="#0C3B5B" stroke="#0C3B5B" stroke-width="3" stroke-linecap="round" stroke-linejoin="round" stroke-miterlimit="10" points="
		54.212,69.073 61.878,82.354 69.545,69.073 	"/>
	<polyline fill="#78C2CD" points="105.112,49.43 86.824,100.32 67.617,100.32 	"/>
	<polyline fill="#FFFFFF" points="20.644,49.43 38.932,100.32 58.139,100.32 	"/>
	<path fill="#B6E2EA" stroke="#0A2C41" stroke-width="3" stroke-miterlimit="10" d="M30.284,96.97h63.189
		c3.279,0,5.938,2.659,5.938,5.938v6.679c0,3.279-2.658,5.938-5.938,5.938H30.284c-3.279,0-5.938-2.658-5.938-5.938v-6.679
		C24.345,99.629,27.004,96.97,30.284,96.97"/>
	<path fill="#FFFFFF" d="M95.805,101.848c0,1.011-0.82,1.831-1.832,1.831H30.032c-1.012,0-1.832-0.82-1.832-1.831l0,0
		c0-1.012,0.82-1.832,1.832-1.832h63.941C94.984,100.016,95.805,100.836,95.805,101.848L95.805,101.848z"/>
</g>
</svg>
