<?xml version="1.0" encoding="utf-8"?>
<!-- Generator: Adobe Illustrator 16.0.0, SVG Export Plug-In . SVG Version: 6.00 Build 0)  -->
<!DOCTYPE svg PUBLIC "-//W3C//DTD SVG 1.1//EN" "http://www.w3.org/Graphics/SVG/1.1/DTD/svg11.dtd">
<svg version="1.1" id="Calque_5" xmlns="http://www.w3.org/2000/svg" xmlns:xlink="http://www.w3.org/1999/xlink" x="0px" y="0px"
	 width="125px" height="125px" viewBox="0 0 125 125" enable-background="new 0 0 125 125" xml:space="preserve">
<g>
	<path fill="#0C3B5B" stroke="#0A2C41" stroke-width="3" stroke-miterlimit="10" d="M88.07,100.102c0,1.865-1.656,3.377-3.699,3.377
		H40.629c-2.043,0-3.699-1.512-3.699-3.377V24.856c0-1.865,1.656-3.378,3.699-3.378h43.742c2.043,0,3.699,1.513,3.699,3.378V100.102
		z"/>
	<path fill="#0C3B5B" stroke="#0A2C41" stroke-width="3" stroke-miterlimit="10" d="M28.357,30.984c0,3.279,1.9,6.215,4.933,6.215
		h58.421c3.031,0,5.488-2.658,5.488-5.938v-6.679c0-0.14-0.01-0.276-0.018-0.413c0.002-0.084,0.018-0.163,0.018-0.248v-8.943
		c0-2.209-1.385-4-3.094-4H83.322c-1.709,0-3.094,1.791-3.094,4v3.666h-9.242v-3.666c0-2.209-1.387-4-3.096-4H57.107
		c-1.707,0-3.094,1.791-3.094,4v3.666h-8.598v-3.666c0-2.209-1.387-4-3.094-4H31.537c-1.708,0-3.094,1.791-3.094,4L28.357,30.984z"
		/>
	<path fill="#0C3B5B" stroke="#0A2C41" stroke-width="3" stroke-miterlimit="10" d="M92,42.813c0,2.209-1.656,4-3.699,4H36.699
		c-2.043,0-3.699-1.791-3.699-4v-1.613c0-2.209,1.656-4,3.699-4h51.602c2.043,0,3.699,1.791,3.699,4V42.813z"/>
	<path fill="#0C3B5B" stroke="#0A2C41" stroke-width="3" stroke-miterlimit="10" d="M94.408,92.645c0,2.209-1.791,4-4,4H34.592
		c-2.209,0-4-1.791-4-4v-1.613c0-2.209,1.791-4,4-4h55.816c2.209,0,4,1.791,4,4V92.645z"/>
	<path fill="#0C3B5B" stroke="#0A2C41" stroke-width="3" stroke-miterlimit="10" d="M30.905,95.467h63.19
		c3.279,0,5.938,2.659,5.938,5.938v6.679c0,3.279-2.658,5.938-5.938,5.938h-63.19c-3.279,0-5.938-2.658-5.938-5.938v-6.679
		C24.967,98.126,27.626,95.467,30.905,95.467"/>
	<path fill="#115D7F" d="M96.428,100.345c0,1.011-0.82,1.831-1.832,1.831H30.653c-1.012,0-1.832-0.82-1.832-1.831l0,0
		c0-1.012,0.82-1.832,1.832-1.832h63.942C95.607,98.513,96.428,99.333,96.428,100.345L96.428,100.345z"/>
	<path fill="#0A2C41" d="M74.025,81.193c0,1.104,0.895,2,2,2H81.9c1.104,0,2-0.896,2-2V52.318c0-1.104-0.896-2-2-2h-5.875
		c-1.105,0-2,0.896-2,2V81.193z"/>
	<path fill="#115D7F" d="M41.221,81.193c0,1.104,0.896,2,2,2h5.875c1.104,0,2-0.896,2-2V52.318c0-1.104-0.896-2-2-2h-5.875
		c-1.104,0-2,0.896-2,2V81.193z"/>
	<path fill="#0A2C41" d="M84.191,31.526c0,1.104,0.896,2,2,2h5.092c1.104,0,2-0.896,2-2V15.901c0-1.104-0.896-2-2-2h-5.092
		c-1.104,0-2,0.896-2,2V31.526z"/>
	<path fill="#115D7F" d="M32.129,31.526c0,1.104,0.896,2,2,2h5.092c1.104,0,2-0.896,2-2V15.901c0-1.104-0.896-2-2-2h-5.092
		c-1.104,0-2,0.896-2,2V31.526z"/>
</g>
</svg>
